# xmcd
#
# Track frame offsets: 
#        150
#        16867
#        32339
#        45593
#        63763
#        79062
#        97636
#        116643
#        142004
#        158328
#        173783
#
# Disc length: 2557 seconds
#
# Revision: 0
# Processed by: cddbd v1.5.2PL0 Copyright (c) Steve Scherf et al.
# Submitted via: ExactAudioCopy v1.0b3
#
DISCID=7209fb0b
DTITLE=Danny Gilboa - BeYom SheHaOsher Igiya
DYEAR=2013
DGENRE=Rock
TTITLE0=BeYom SheHaOsher Igiya
TTITLE1=Guru
TTITLE2=Adom
TTITLE3=HaDereh
TTITLE4=HaKol Aia Beseder
TTITLE5=HaLev HaTov
TTITLE6=Haim Yad Shniya
TTITLE7=Kaha Ze
TTITLE8=Mahzik Oti Hai
TTITLE9=Mafsid Menatzeah
TTITLE10=Einaim
EXTD=
EXTT0=
EXTT1=
EXTT2=
EXTT3=
EXTT4=
EXTT5=
EXTT6=
EXTT7=
EXTT8=
EXTT9=
EXTT10=
PLAYORDER=
